<svg id="Layer_1" data-name="Layer 1" xmlns="http://www.w3.org/2000/svg" viewBox="0 0 256 256"><defs><style>.cls-1{fill:#ffd85c;}</style></defs><circle class="cls-1" cx="133.28" cy="101.27" r="29.98"/><path d="M150.86,88.46H117.69a2.35,2.35,0,0,1,0-4.69h33.17a2.35,2.35,0,1,1,0,4.69Z"/><path d="M134.28,99.25a2.35,2.35,0,0,1-2.35-2.35V86.24a2.35,2.35,0,1,1,4.69,0V96.9A2.35,2.35,0,0,1,134.28,99.25Z"/><path d="M134.28,126.28a2.35,2.35,0,0,1-2.35-2.35V118a2.35,2.35,0,1,1,4.69,0v5.92A2.35,2.35,0,0,1,134.28,126.28Z"/><path d="M126.74,109.69a2.34,2.34,0,0,1-1.14-4.39l13.57-7.54a2.35,2.35,0,1,1,2.28,4.1l-13.57,7.54A2.33,2.33,0,0,1,126.74,109.69Z"/><path d="M126.74,118.74a2.35,2.35,0,0,1-1.14-4.4l13.57-7.54a2.35,2.35,0,0,1,2.28,4.1l-13.57,7.54A2.34,2.34,0,0,1,126.74,118.74Z"/><path d="M183.64,200.08v-4.69a16.46,16.46,0,0,0,1.13-32.89,15.29,15.29,0,0,1-3.84-.81,2.48,2.48,0,0,1-.44-.2l-4.08-2.4c-2.61-.74-9.87-.79-12.41-.07l-7.2,2.66-.14,0a17.43,17.43,0,0,1-5,.74h-40a2.33,2.33,0,0,1-2-1.07,2.36,2.36,0,0,1-.18-2.23L119.29,137a1.66,1.66,0,0,0-2.7-1.83l-19.51,19.9a24.71,24.71,0,0,1-17.55,7.38H72.36a16.46,16.46,0,0,0,0,32.92v4.69a21.15,21.15,0,1,1,0-42.3h7.17a20,20,0,0,0,14.2-6l19.51-19.9a6.35,6.35,0,0,1,10.34,7l-8.34,18.86h36.4a12.9,12.9,0,0,0,3.6-.52l7.21-2.67.14,0c3.48-1,12.18-1,15.52.16a2.28,2.28,0,0,1,.45.2l4.09,2.41a10.48,10.48,0,0,0,2.43.51,21.15,21.15,0,0,1-1.44,42.25Z"/><rect x="113.46" y="195.39" width="32.09" height="4.69"/><path d="M70.79,184.41H55.12a2.35,2.35,0,0,1,0-4.69H70.79a4.71,4.71,0,1,0,0-9.42,2.35,2.35,0,0,1,0-4.69,9.4,9.4,0,1,1,0,18.8Z"/><path d="M153.75,162.08a2.34,2.34,0,0,1-2.34-2.34c0-3.13-.4-13.33-5.5-13.33-4.83,0-11.76,7.85-11.76,13.33a2.35,2.35,0,0,1-4.69,0c0-7.54,8.29-18,16.45-18,6.47,0,10.18,6.57,10.18,18A2.34,2.34,0,0,1,153.75,162.08Z"/><path d="M92.74,218.89a21.16,21.16,0,1,1,21.15-21.15A21.18,21.18,0,0,1,92.74,218.89Zm0-37.62a16.47,16.47,0,1,0,16.46,16.47A16.49,16.49,0,0,0,92.74,181.27Z"/><path d="M92.74,207.92a10.18,10.18,0,1,1,10.18-10.18A10.19,10.19,0,0,1,92.74,207.92Zm0-15.68a5.5,5.5,0,1,0,5.49,5.5A5.51,5.51,0,0,0,92.74,192.24Z"/><path d="M166.4,218.89a21.16,21.16,0,1,1,21.15-21.15A21.17,21.17,0,0,1,166.4,218.89Zm0-37.62a16.47,16.47,0,1,0,16.46,16.47A16.48,16.48,0,0,0,166.4,181.27Z"/><path d="M166.4,207.92a10.18,10.18,0,1,1,10.18-10.18A10.19,10.19,0,0,1,166.4,207.92Zm0-15.68a5.5,5.5,0,1,0,5.49,5.5A5.5,5.5,0,0,0,166.4,192.24Z"/><path d="M121.55,66.42a2.34,2.34,0,0,1-2.34-2.34V47.66a2.35,2.35,0,0,1,4.69,0V64.08A2.35,2.35,0,0,1,121.55,66.42Z"/><path d="M121.55,43a2.34,2.34,0,0,1-2.34-2.34V39.46a2.35,2.35,0,1,1,4.69,0v1.17A2.35,2.35,0,0,1,121.55,43Z"/><path d="M133.28,68.77a2.35,2.35,0,0,1-2.35-2.35V48.84a2.35,2.35,0,1,1,4.69,0V66.42A2.35,2.35,0,0,1,133.28,68.77Z"/><path d="M133.28,45.32A2.35,2.35,0,0,1,130.93,43V40.63a2.35,2.35,0,1,1,4.69,0V43A2.35,2.35,0,0,1,133.28,45.32Z"/><path d="M145,64.08a2.35,2.35,0,0,1-2.35-2.35V47.66a2.35,2.35,0,0,1,4.69,0V61.73A2.35,2.35,0,0,1,145,64.08Z"/><path d="M145,43a2.35,2.35,0,0,1-2.35-2.34V39.46a2.35,2.35,0,1,1,4.69,0v1.17A2.34,2.34,0,0,1,145,43Z"/></svg>