<svg id="Layer_1" data-name="Layer 1" xmlns="http://www.w3.org/2000/svg" viewBox="0 0 256 256"><defs><style>.cls-1{fill:#ffd85c;}</style></defs><circle class="cls-1" cx="145.93" cy="120.47" r="53.93"/><path d="M113.13,145.24a2.24,2.24,0,0,1-.84-.16,41.24,41.24,0,0,1,14.86-79.71,40.86,40.86,0,0,1,18.44,4.34,2.35,2.35,0,0,1-2.1,4.2,36.07,36.07,0,0,0-16.34-3.85A36.55,36.55,0,0,0,114,140.71a2.34,2.34,0,0,1-.85,4.53Z"/><path d="M127.15,180.26a2.35,2.35,0,0,1-2.34-2.35V145.5a2.34,2.34,0,0,1,2.34-2.34,36.55,36.55,0,0,0,23.41-64.62,2.35,2.35,0,0,1,3-3.6,41.24,41.24,0,0,1-24.07,72.84v30.13A2.35,2.35,0,0,1,127.15,180.26Z"/><path d="M107.54,181.4c-4.93,0-9.44-.33-11.69-1.35-6-2.75-17.25-20.68-19.44-24.25a2.35,2.35,0,0,1,2-3.57h24.11c5.44,0,12.42,7.79,21,18,2.15,2.56,4,4.76,5.3,6.05a2.36,2.36,0,0,1,.55,2.45,2.32,2.32,0,0,1-2,1.54C125.76,180.42,116,181.4,107.54,181.4ZM82.66,156.92c5,7.66,12,17.42,15.13,18.86s15.24,1,24.49.23l-2.36-2.79c-4.79-5.7-13.71-16.3-17.4-16.3Z"/><path d="M147.28,181.4c-8.48,0-18.22-1-19.85-1.16a2.34,2.34,0,0,1-1.41-4c1.29-1.29,3.15-3.49,5.3-6.05,8.56-10.18,15.55-18,21-18h24.11a2.35,2.35,0,0,1,2,3.57c-2.19,3.57-13.4,21.5-19.44,24.25C156.73,181.07,152.22,181.4,147.28,181.4ZM132.54,176c9.26.77,21.33,1.21,24.49-.23s10.19-11.2,15.14-18.86H152.31c-3.69,0-12.61,10.6-17.4,16.3C134.07,174.21,133.28,175.15,132.54,176Z"/><path d="M153.08,190.63H102.52a2.35,2.35,0,1,1,0-4.69h50.56a2.35,2.35,0,1,1,0,4.69Z"/><path d="M144.76,93.27H111.59a2.35,2.35,0,0,1,0-4.69h33.17a2.35,2.35,0,1,1,0,4.69Z"/><path d="M128.18,104.06a2.35,2.35,0,0,1-2.35-2.35V91.05a2.35,2.35,0,0,1,4.69,0v10.66A2.35,2.35,0,0,1,128.18,104.06Z"/><path d="M128.18,131.09a2.35,2.35,0,0,1-2.35-2.35v-5.92a2.35,2.35,0,1,1,4.69,0v5.92A2.35,2.35,0,0,1,128.18,131.09Z"/><path d="M120.64,114.5a2.34,2.34,0,0,1-1.14-4.39l13.57-7.54a2.35,2.35,0,1,1,2.28,4.1l-13.57,7.54A2.33,2.33,0,0,1,120.64,114.5Z"/><path d="M120.64,123.55a2.35,2.35,0,0,1-1.14-4.4l13.57-7.53a2.35,2.35,0,0,1,2.28,4.1l-13.57,7.53A2.34,2.34,0,0,1,120.64,123.55Z"/></svg>