<svg id="Layer_1" data-name="Layer 1" xmlns="http://www.w3.org/2000/svg" viewBox="0 0 256 256"><defs><style>.cls-1{fill:#ffd85c;}</style></defs><circle class="cls-1" cx="113.83" cy="129.64" r="65.92"/><path d="M152.55,187.92H113.38a30.53,30.53,0,0,1-30.5-30.5V118.25a30.53,30.53,0,0,1,30.5-30.5H133a3.3,3.3,0,0,1,0,6.59H113.38a23.94,23.94,0,0,0-23.91,23.91v39.17a23.94,23.94,0,0,0,23.91,23.91h39.17a23.93,23.93,0,0,0,23.91-23.91V127.68a3.3,3.3,0,1,1,6.59,0v29.74A30.53,30.53,0,0,1,152.55,187.92Z"/><path d="M127.51,144.31a3.29,3.29,0,0,1-3.12-4.36L134.59,110a3.49,3.49,0,0,1,.79-1.27L180,64.19c5.67-5.67,15.76-4.82,22.48,1.9s7.57,16.81,1.9,22.48l-44.58,44.58a3.45,3.45,0,0,1-1.26.79l-29.92,10.19A3.29,3.29,0,0,1,127.51,144.31Zm13.07-31.42-7.79,22.84L155.64,128l44-44c3.1-3.1,2.25-9-1.9-13.16s-10.06-5-13.16-1.9Zm16.85,17.93h0Z"/><path d="M162.21,163.29H108.89a3.3,3.3,0,0,1,0-6.59h53.32a3.3,3.3,0,1,1,0,6.59Z"/><path d="M118,142.66h-9.07a3.3,3.3,0,0,1,0-6.59H118a3.3,3.3,0,1,1,0,6.59Z"/><path d="M122,122H108.89a3.3,3.3,0,0,1,0-6.59H122a3.3,3.3,0,1,1,0,6.59Z"/></svg>