<svg id="Layer_1" data-name="Layer 1" xmlns="http://www.w3.org/2000/svg" viewBox="0 0 256 256"><defs><style>.cls-1{fill:#ffd85c;}</style></defs><circle class="cls-1" cx="115.43" cy="118.89" r="65.92"/><path d="M138.74,92.22H92.13a3.3,3.3,0,0,1,0-6.59h46.61a3.3,3.3,0,0,1,0,6.59Z"/><path d="M115.43,107.2a3.29,3.29,0,0,1-3.29-3.29v-15a3.3,3.3,0,1,1,6.59,0v15A3.29,3.29,0,0,1,115.43,107.2Z"/><path d="M115.43,145.18a3.29,3.29,0,0,1-3.29-3.29v-8.33a3.3,3.3,0,0,1,6.59,0v8.33A3.29,3.29,0,0,1,115.43,145.18Z"/><path d="M104.85,121.88a3.3,3.3,0,0,1-1.61-6.18l19.07-10.59a3.29,3.29,0,0,1,3.2,5.76l-19.07,10.59A3.16,3.16,0,0,1,104.85,121.88Z"/><path d="M104.85,134.59a3.29,3.29,0,0,1-1.61-6.17l19.07-10.6a3.29,3.29,0,0,1,3.2,5.76l-19.07,10.6A3.25,3.25,0,0,1,104.85,134.59Z"/><path d="M146.09,198.92c-13.51,0-29.28-.87-38-4.36-13.62-5.45-23.64-13.3-25.52-20a7.28,7.28,0,0,1,1-6.46c5-6.61,14.07-2.31,20.74.83,2.67,1.25,5.43,2.55,7.14,2.84a75.18,75.18,0,0,0,22.08.48c-.45-.37-.94-.76-1.49-1.15-1.2-.88-2.58-1.75-3.91-2.6-4.62-2.94-9-5.73-9-10a8.55,8.55,0,0,1,3.1-7c2.5-2,6.16-2.36,10.88-1.18,4.88,1.22,18.83,8.42,29.68,14.24a18.11,18.11,0,0,0,8.53,2.14h15.35a3.3,3.3,0,0,1,3.3,3.3v21.68a3.29,3.29,0,0,1-2.7,3.24l-16.48,3-.35,0C169.59,198.15,158.85,198.92,146.09,198.92ZM91,171.22a2.51,2.51,0,0,0-2.13.84c-.12.15,0,.56,0,.73,1.07,3.83,9,10.61,21.62,15.65,15.08,6,56.29,3.29,59.31,3.08l13.6-2.49V173.38H171.37a24.75,24.75,0,0,1-11.65-2.92c-14.43-7.75-25-12.85-28.16-13.65-2.94-.74-4.63-.5-5.23,0a2.23,2.23,0,0,0-.56,1.64c.51,1.08,3.9,3.24,5.94,4.53,1.41.9,2.87,1.83,4.23,2.82s2.55,2,3.43,2.8l.47.4a6,6,0,0,1,1.57,5.92,4.46,4.46,0,0,1-3.55,3.38,80.88,80.88,0,0,1-27.46,0c-2.62-.44-5.65-1.87-8.87-3.38C98.1,173.28,93.73,171.22,91,171.22Zm44.51,2.72Z"/><path d="M203.2,203H186.72a3.29,3.29,0,0,1-3.29-3.29V160.2a3.29,3.29,0,0,1,3.29-3.29H203.2a3.29,3.29,0,0,1,3.29,3.29v39.54A3.29,3.29,0,0,1,203.2,203ZM190,196.44h9.88V163.5H190Z"/><path d="M119.91,178.63a3.29,3.29,0,0,1-2.73-1.45,66.49,66.49,0,0,1-5.76-11.68c-.26-.64-.48-1.18-.66-1.59-.55-1.29-1.14-1.77-1.37-1.84s-.36.1-.43.14c-.71.44-2.24,3.88,1.1,9.35a3.29,3.29,0,1,1-5.62,3.44c-5.44-8.9-2.64-16.12,1.08-18.41a7.08,7.08,0,0,1,5.86-.81c1.61.51,3.86,1.88,5.43,5.51.19.45.43,1,.71,1.73a61.28,61.28,0,0,0,5.11,10.46,3.29,3.29,0,0,1-2.72,5.15Z"/></svg>