<svg id="Layer_1" data-name="Layer 1" xmlns="http://www.w3.org/2000/svg" viewBox="0 0 256 256"><defs><style>.cls-1{fill:#ffd85c;}</style></defs><circle class="cls-1" cx="126.86" cy="119.81" r="65.92"/><path d="M113.91,141.27a3.23,3.23,0,0,1-2.18-.83,3.29,3.29,0,0,1-.28-4.65l30.08-33.87a11.59,11.59,0,1,1,17.33,15.39l-11.47,12.92a3.29,3.29,0,1,1-4.92-4.37l11.47-12.92a5,5,0,0,0-7.49-6.64l-30.07,33.86A3.27,3.27,0,0,1,113.91,141.27Z"/><path d="M123.23,185.66c-10,0-33.34-14.94-34.21-24-.67-6.92,1.92-22.25,11.74-33.92,10.19-12.11,23.46-8.16,25.65-6.88a3.29,3.29,0,1,1-3.32,5.69s-9.6-3.71-17.29,5.43c-8,9.49-10.81,22.94-10.22,29.05.45,4.66,20.43,18.5,27.81,18,7.93-.51,20.56-8.08,28-19.86,1.68-2.67,2.38-5.29,1.82-6.83-.18-.52-.6-1.26-2.16-1.79l-4.09-1.37,2.4-3.58a4,4,0,0,0,0-4,3.74,3.74,0,0,0-2.29-2.11l-4.75-.11L144,135c1-2.38-1.05-4.31-1.28-4.53a3.32,3.32,0,0,1-.25-4.64,3.27,3.27,0,0,1,4.6-.3,11.21,11.21,0,0,1,3.79,8.5,11.28,11.28,0,0,1,4.26,4.56,10.91,10.91,0,0,1,1.08,7.31,9,9,0,0,1,3.16,4.23c1.27,3.56.4,8-2.45,12.56-8.94,14.22-23.42,22.3-33.11,22.93Z"/><path d="M107.59,202.11a7,7,0,0,1-4.7-1.79l-24.77-22a7.1,7.1,0,0,1-.59-10l6-6.78a7.1,7.1,0,0,1,10-.6l24.77,22a7.09,7.09,0,0,1,.59,10l-6,6.78A7,7,0,0,1,108,202.1ZM88.85,165.76a.49.49,0,0,0-.37.16l-6,6.78a.55.55,0,0,0-.13.36.5.5,0,0,0,.17.34l24.77,22a.48.48,0,0,0,.36.12.55.55,0,0,0,.34-.16l6-6.78a.48.48,0,0,0,.12-.36.53.53,0,0,0-.16-.34l-24.77-22A.54.54,0,0,0,88.85,165.76Z"/><circle cx="181.98" cy="95.26" r="9.79"/><path d="M182,108.35a13.09,13.09,0,1,1,13.09-13.09A13.1,13.1,0,0,1,182,108.35Zm0-19.59a6.5,6.5,0,1,0,6.5,6.5A6.51,6.51,0,0,0,182,88.76Z"/><path d="M182,143.64a13.09,13.09,0,1,1,13.09-13.09A13.1,13.1,0,0,1,182,143.64Zm0-19.59a6.5,6.5,0,1,0,6.5,6.5A6.51,6.51,0,0,0,182,124.05Z"/><path d="M182,178.93a13.09,13.09,0,1,1,13.09-13.08A13.1,13.1,0,0,1,182,178.93Zm0-19.58a6.5,6.5,0,1,0,6.5,6.5A6.5,6.5,0,0,0,182,159.35Z"/></svg>