<svg id="Layer_1" data-name="Layer 1" xmlns="http://www.w3.org/2000/svg" viewBox="0 0 256 256"><path d="M197.64,132.71H140.33a3.27,3.27,0,0,1-2.82-1.61l-9.45-15.78L117.7,131.21a3.28,3.28,0,0,1-2.76,1.5H58.36a3.3,3.3,0,0,1-3.23-4L64.56,83a3.3,3.3,0,0,1,3.23-2.63H188.58a3.3,3.3,0,0,1,0,6.59H70.47L62.4,126.12h50.76l12.26-18.82a3.14,3.14,0,0,1,2.82-1.49,3.28,3.28,0,0,1,2.77,1.6l11.19,18.71h51.43l-5.35-26.95a3.3,3.3,0,0,1,6.47-1.28l6.13,30.88a3.31,3.31,0,0,1-3.24,3.94Z"/><path d="M188.94,182.76H67.06a3.29,3.29,0,0,1-3.29-3.29V129.41a3.3,3.3,0,0,1,6.59,0v46.76H185.64V129.41a3.3,3.3,0,0,1,6.59,0v50.06A3.29,3.29,0,0,1,188.94,182.76Z"/><path d="M195.83,200.18H60.17a3.3,3.3,0,0,1-3.3-3.3V179.47a3.3,3.3,0,0,1,3.3-3.3H195.83a3.29,3.29,0,0,1,3.29,3.3v17.41A3.29,3.29,0,0,1,195.83,200.18ZM63.46,193.59H192.54V182.76H63.46Z"/><path d="M114.58,182.76H79.76a3.29,3.29,0,0,1-3.3-3.29V159.16a20.71,20.71,0,1,1,41.41,0v20.31A3.29,3.29,0,0,1,114.58,182.76Zm-31.53-6.59h28.23v-17a14.12,14.12,0,1,0-28.23,0Z"/><path d="M174.79,170.43H133.44a3.29,3.29,0,0,1-3.29-3.29V141.75a3.29,3.29,0,0,1,3.29-3.3h41.35a3.3,3.3,0,0,1,3.3,3.3v25.39A3.29,3.29,0,0,1,174.79,170.43Zm-38-6.59H171.5V145H136.74Z"/><path d="M147.22,170.43a3.29,3.29,0,0,1-3.29-3.29V141.75a3.3,3.3,0,1,1,6.59,0v25.39A3.29,3.29,0,0,1,147.22,170.43Z"/></svg>