<svg id="Layer_1" data-name="Layer 1" xmlns="http://www.w3.org/2000/svg" viewBox="0 0 256 256"><path d="M59.19,168.82a3.29,3.29,0,0,1-3.29-3.29V77.94c0-11.3,9.57-20.5,21.34-20.5H130c11.58,0,21,8.7,21.34,19.8,0,.3,0,15.11,0,15.26a3.3,3.3,0,1,1-6.59,0c0-.19,0-14.48,0-15.08C144.5,69.94,138,64,130,64H77.24c-8.13,0-14.75,6.24-14.75,13.91v87.59A3.29,3.29,0,0,1,59.19,168.82Z"/><path d="M130,198.56H77.24c-11.77,0-21.34-9.2-21.34-20.5a3.3,3.3,0,1,1,6.59,0c0,7.67,6.62,13.91,14.75,13.91H130c8.14,0,14.76-6.24,14.76-13.91v-1.63a3.3,3.3,0,0,1,6.59,0v1.63C151.36,189.36,141.78,198.56,130,198.56Z"/><path d="M114.45,76.49h-23A12.09,12.09,0,0,1,79.42,64.42V60.74a3.3,3.3,0,0,1,3.3-3.3h40.51a3.3,3.3,0,0,1,3.3,3.3v3.68A12.09,12.09,0,0,1,114.45,76.49ZM86,64v.39a5.49,5.49,0,0,0,5.48,5.48h23a5.49,5.49,0,0,0,5.49-5.48V64Z"/><path d="M136,148.94a3.28,3.28,0,0,1-2.18-.83L99.92,118a11.59,11.59,0,0,1,15.39-17.34l12.92,11.47a3.3,3.3,0,0,1-4.38,4.93l-12.91-11.47a5,5,0,0,0-6.65,7.48l33.87,30.08a3.29,3.29,0,0,1-2.19,5.76Z"/><path d="M157.43,170.64a53,53,0,0,1-31.69-11.84c-12.12-10.19-8.16-23.46-6.88-25.66a3.3,3.3,0,0,1,5.69,3.33s-3.72,9.6,5.43,17.29c9.48,8,22.94,10.81,29.05,10.22,4.66-.45,18.52-20.41,18-27.82-.52-7.93-8.09-20.55-19.86-27.95-2.67-1.68-5.29-2.37-6.84-1.83a3,3,0,0,0-1.78,2.17l-1.37,4.08-3.58-2.39a4,4,0,0,0-4,0,3.69,3.69,0,0,0-2.1,2.29l-.11,4.74L133,115.54c-2.38-1-4.32,1-4.53,1.28a3.3,3.3,0,0,1-5-4.36,11.28,11.28,0,0,1,8.51-3.78,11.15,11.15,0,0,1,4.56-4.26,10.85,10.85,0,0,1,7.31-1.08,8.88,8.88,0,0,1,4.23-3.16c3.55-1.27,8-.4,12.55,2.45,14.23,8.94,22.31,23.42,22.93,33.11s-14.74,33.91-24,34.8A21.77,21.77,0,0,1,157.43,170.64Z"/><path d="M171,183.81a7.05,7.05,0,0,1-4.69-1.78l-6.79-6a7.08,7.08,0,0,1-.59-10l22-24.77a7.1,7.1,0,0,1,10-.6l6.78,6a7.08,7.08,0,0,1,.59,10l-22,24.77A7,7,0,0,1,171,183.81Zm15.22-38.36a.5.5,0,0,0-.37.16l-22,24.77a.5.5,0,0,0,0,.7l6.78,6a.5.5,0,0,0,.7,0l22-24.77a.49.49,0,0,0,0-.7l-6.78-6A.5.5,0,0,0,186.24,145.45Zm9.62,9h0Z"/></svg>