<svg id="Layer_1" data-name="Layer 1" xmlns="http://www.w3.org/2000/svg" viewBox="0 0 256 256"><path d="M135.07,191.74H95.89a30.54,30.54,0,0,1-30.5-30.5V122.07a30.54,30.54,0,0,1,30.5-30.5h19.59a3.3,3.3,0,1,1,0,6.59H95.89A23.94,23.94,0,0,0,72,122.07v39.17a23.94,23.94,0,0,0,23.91,23.91h39.18A23.94,23.94,0,0,0,159,161.24V131.5a3.3,3.3,0,1,1,6.59,0v29.74A30.53,30.53,0,0,1,135.07,191.74Z"/><path d="M110,148.13a3.29,3.29,0,0,1-3.12-4.36l10.2-29.92a3.21,3.21,0,0,1,.79-1.26L162.47,68c5.67-5.67,15.76-4.82,22.48,1.9s7.57,16.81,1.9,22.48L142.28,137a3.49,3.49,0,0,1-1.27.79L111.09,148A3.28,3.28,0,0,1,110,148.13Zm13.07-31.42-7.79,22.84,22.85-7.78,44-44c3.11-3.1,2.25-9-1.9-13.16s-10.06-5-13.16-1.9ZM140,134.64h0Z"/><path d="M144.73,167.11H91.41a3.3,3.3,0,1,1,0-6.59h53.32a3.3,3.3,0,0,1,0,6.59Z"/><path d="M100.48,146.48H91.41a3.3,3.3,0,1,1,0-6.59h9.07a3.3,3.3,0,0,1,0,6.59Z"/><path d="M104.47,125.86H91.41a3.3,3.3,0,1,1,0-6.59h13.06a3.3,3.3,0,0,1,0,6.59Z"/></svg>