<svg id="Layer_1" data-name="Layer 1" xmlns="http://www.w3.org/2000/svg" viewBox="0 0 256 256"><path d="M122.38,75.89H75.77a3.3,3.3,0,0,1,0-6.59h46.61a3.3,3.3,0,0,1,0,6.59Z"/><path d="M99.07,90.87a3.29,3.29,0,0,1-3.29-3.29v-15a3.3,3.3,0,0,1,6.59,0v15A3.29,3.29,0,0,1,99.07,90.87Z"/><path d="M99.07,128.85a3.29,3.29,0,0,1-3.29-3.29v-8.33a3.3,3.3,0,1,1,6.59,0v8.33A3.29,3.29,0,0,1,99.07,128.85Z"/><path d="M88.49,105.55a3.3,3.3,0,0,1-1.61-6.18L106,88.78a3.29,3.29,0,1,1,3.2,5.76L90.08,105.13A3.26,3.26,0,0,1,88.49,105.55Z"/><path d="M88.49,118.26a3.3,3.3,0,0,1-1.61-6.18L106,101.49a3.29,3.29,0,0,1,3.2,5.76L90.08,117.84A3.16,3.16,0,0,1,88.49,118.26Z"/><path d="M129.73,182.59c-13.51,0-29.28-.87-38-4.36-13.62-5.45-23.64-13.3-25.52-20a7.28,7.28,0,0,1,1-6.46c5-6.61,14.07-2.31,20.74.82,2.67,1.26,5.43,2.56,7.14,2.85a75.18,75.18,0,0,0,22.08.48c-.45-.37-.94-.76-1.49-1.16-1.2-.87-2.57-1.74-3.91-2.59-4.62-3-9-5.73-9-10a8.54,8.54,0,0,1,3.1-7c2.5-2,6.16-2.36,10.88-1.18,4.88,1.22,18.83,8.42,29.68,14.24a18.11,18.11,0,0,0,8.53,2.14h15.35a3.29,3.29,0,0,1,3.3,3.29v21.69a3.29,3.29,0,0,1-2.7,3.24l-16.48,3a2,2,0,0,1-.35.05C153.23,181.82,142.49,182.59,129.73,182.59Zm-55.09-27.7a2.51,2.51,0,0,0-2.13.84c-.12.15,0,.56,0,.73,1.07,3.82,9,10.61,21.62,15.65,15.08,6,56.29,3.29,59.31,3.08l13.6-2.49V157.05H155a24.75,24.75,0,0,1-11.65-2.92c-14.43-7.75-25-12.85-28.16-13.65-2.94-.74-4.63-.5-5.23,0a2.23,2.23,0,0,0-.56,1.64c.51,1.08,3.9,3.23,5.94,4.53,1.41.9,2.87,1.83,4.23,2.82s2.55,2,3.43,2.79l.47.41a6,6,0,0,1,1.57,5.92,4.47,4.47,0,0,1-3.55,3.38A81.14,81.14,0,0,1,94,162c-2.62-.44-5.65-1.87-8.87-3.38C81.74,157,77.37,154.89,74.64,154.89Zm44.51,2.72h0Z"/><path d="M186.84,186.7H170.36a3.29,3.29,0,0,1-3.29-3.29V143.87a3.29,3.29,0,0,1,3.29-3.3h16.48a3.29,3.29,0,0,1,3.29,3.3v39.54A3.29,3.29,0,0,1,186.84,186.7Zm-13.18-6.59h9.88v-33h-9.88Z"/><path d="M103.55,162.29a3.28,3.28,0,0,1-2.73-1.44,66.49,66.49,0,0,1-5.76-11.68c-.26-.64-.48-1.18-.66-1.6-.55-1.28-1.14-1.76-1.37-1.84s-.36.11-.43.15c-.71.44-2.24,3.88,1.1,9.35a3.29,3.29,0,1,1-5.62,3.43c-5.44-8.89-2.64-16.11,1.08-18.4a7,7,0,0,1,5.86-.81c1.61.51,3.86,1.88,5.43,5.51.19.45.43,1,.71,1.73a61.28,61.28,0,0,0,5.11,10.46,3.28,3.28,0,0,1-2.72,5.14Z"/></svg>