<svg id="Layer_1" data-name="Layer 1" xmlns="http://www.w3.org/2000/svg" viewBox="0 0 256 256"><path d="M165.92,176.82H75.25a23.16,23.16,0,0,1-23.13-23.13V102.62A23.15,23.15,0,0,1,75.25,79.5a3.3,3.3,0,0,1,0,6.59,16.56,16.56,0,0,0-16.54,16.53v51.07a16.56,16.56,0,0,0,16.54,16.54h90.67a16.55,16.55,0,0,0,16.53-16.54V102.62a16.55,16.55,0,0,0-16.53-16.53H89.81a3.3,3.3,0,1,1,0-6.59h76.11A23.14,23.14,0,0,1,189,102.62v51.07A23.15,23.15,0,0,1,165.92,176.82Z"/><path d="M180.76,187.63H90.08A23.15,23.15,0,0,1,79.4,185a3.29,3.29,0,1,1,3-5.84A16.39,16.39,0,0,0,90.08,181h90.68a16.56,16.56,0,0,0,16.53-16.54V113.43a16.53,16.53,0,0,0-5.76-12.54,3.29,3.29,0,1,1,4.29-5,23.12,23.12,0,0,1,8.06,17.54V164.5A23.15,23.15,0,0,1,180.76,187.63Z"/><path d="M86.72,124.57a10.64,10.64,0,1,1,10.64-10.64A10.65,10.65,0,0,1,86.72,124.57Zm0-14.69a4.05,4.05,0,1,0,4.06,4.05A4.05,4.05,0,0,0,86.72,109.88Z"/><path d="M86.72,164.14a18.12,18.12,0,1,1,7.85-34.46,3.3,3.3,0,1,1-2.86,5.94,11.43,11.43,0,0,0-5-1.13A11.53,11.53,0,1,0,98.22,147a3.29,3.29,0,1,1,6.56.54A18.2,18.2,0,0,1,86.72,164.14Z"/><path d="M122,124.57a10.64,10.64,0,1,1,10.64-10.64A10.65,10.65,0,0,1,122,124.57Zm0-14.69a4.05,4.05,0,1,0,4,4.05A4.05,4.05,0,0,0,122,109.88Z"/><path d="M157.3,124.57a10.64,10.64,0,1,1,10.64-10.64A10.65,10.65,0,0,1,157.3,124.57Zm0-14.69a4.05,4.05,0,1,0,4,4.05A4,4,0,0,0,157.3,109.88Z"/><path d="M122,155.31a10.64,10.64,0,1,1,10.64-10.64A10.65,10.65,0,0,1,122,155.31Zm0-14.69a4.05,4.05,0,1,0,4,4A4.05,4.05,0,0,0,122,140.62Z"/><path d="M157.3,155.31a10.64,10.64,0,1,1,10.64-10.64A10.65,10.65,0,0,1,157.3,155.31Zm0-14.69a4.05,4.05,0,1,0,4,4A4,4,0,0,0,157.3,140.62Z"/><path d="M89.81,93.82a3.29,3.29,0,0,1-3.3-3.29V71.67a3.3,3.3,0,1,1,6.59,0V90.53A3.29,3.29,0,0,1,89.81,93.82Z"/><path d="M150,93.82a3.29,3.29,0,0,1-3.29-3.29V71.67a3.3,3.3,0,1,1,6.59,0V90.53A3.29,3.29,0,0,1,150,93.82Z"/><path d="M87.36,155.17a3.32,3.32,0,0,1-2.22-.86l-7.89-7.21a3.3,3.3,0,0,1,4.44-4.87l5.42,5,10.57-11.92a3.29,3.29,0,1,1,4.93,4.37L89.82,154.06a3.3,3.3,0,0,1-2.29,1.11Z"/></svg>