<svg id="Layer_1" data-name="Layer 1" xmlns="http://www.w3.org/2000/svg" viewBox="0 0 256 256"><path d="M119.14,142.68H72.53a3.3,3.3,0,0,1,0-6.59h46.61a3.3,3.3,0,0,1,0,6.59Z"/><path d="M95.84,157.66a3.29,3.29,0,0,1-3.3-3.29v-15a3.3,3.3,0,0,1,6.59,0v15A3.29,3.29,0,0,1,95.84,157.66Z"/><path d="M95.84,195.64a3.3,3.3,0,0,1-3.3-3.3V184a3.3,3.3,0,1,1,6.59,0v8.32A3.29,3.29,0,0,1,95.84,195.64Z"/><path d="M85.25,172.34a3.3,3.3,0,0,1-1.61-6.18l19.07-10.59a3.29,3.29,0,1,1,3.2,5.76L86.84,171.92A3.26,3.26,0,0,1,85.25,172.34Z"/><path d="M85.25,185.05a3.3,3.3,0,0,1-1.61-6.18l19.07-10.59a3.29,3.29,0,1,1,3.2,5.76L86.84,184.63A3.26,3.26,0,0,1,85.25,185.05Z"/><path d="M131.31,171.28a55.53,55.53,0,0,1-16-2.34,3.29,3.29,0,1,1,1.9-6.31A48.82,48.82,0,1,0,83.5,126a3.3,3.3,0,1,1-6.45,1.37,55.46,55.46,0,1,1,54.26,43.92Z"/><path d="M131.31,79.8a3.29,3.29,0,0,1-3.3-3.29V63.66a3.3,3.3,0,1,1,6.59,0V76.51A3.29,3.29,0,0,1,131.31,79.8Z"/><path d="M131.31,170.88a3.3,3.3,0,0,1-3.3-3.3V154.73a3.3,3.3,0,1,1,6.59,0v12.85A3.3,3.3,0,0,1,131.31,170.88Z"/><path d="M183,119.11H170.13a3.3,3.3,0,1,1,0-6.59H183a3.3,3.3,0,1,1,0,6.59Z"/><path d="M92,119.11H79.14a3.3,3.3,0,0,1,0-6.59H92a3.3,3.3,0,0,1,0,6.59Z"/><path d="M156.53,129.09a3.25,3.25,0,0,1-1.21-.23l-25.23-10a3.29,3.29,0,0,1-2.08-3.06V93.51a3.3,3.3,0,0,1,6.59,0v20.07l23.15,9.15a3.3,3.3,0,0,1-1.22,6.36Z"/></svg>