<svg id="Layer_1" data-name="Layer 1" xmlns="http://www.w3.org/2000/svg" viewBox="0 0 256 256"><path d="M176.26,107.63H129.65a3.3,3.3,0,0,1,0-6.59h46.61a3.3,3.3,0,1,1,0,6.59Z"/><path d="M153,122.62a3.3,3.3,0,0,1-3.3-3.3v-15a3.3,3.3,0,1,1,6.59,0v15A3.29,3.29,0,0,1,153,122.62Z"/><path d="M153,160.6a3.3,3.3,0,0,1-3.3-3.3V149a3.3,3.3,0,0,1,6.59,0v8.33A3.29,3.29,0,0,1,153,160.6Z"/><path d="M142.37,137.29a3.29,3.29,0,0,1-1.61-6.17l19.07-10.6a3.3,3.3,0,0,1,3.2,5.77L144,136.88A3.31,3.31,0,0,1,142.37,137.29Z"/><path d="M142.37,150a3.29,3.29,0,0,1-1.61-6.17l19.07-10.59A3.29,3.29,0,0,1,163,139L144,149.59A3.31,3.31,0,0,1,142.37,150Z"/><path d="M197.39,168.82a3.29,3.29,0,0,1-3.29-3.29V77.94c0-7.67-6.62-13.91-14.76-13.91H126.57c-8.14,0-14.76,6.24-14.76,13.91a3.3,3.3,0,1,1-6.59,0c0-11.3,9.58-20.5,21.35-20.5h52.77c11.77,0,21.35,9.2,21.35,20.5v87.59A3.29,3.29,0,0,1,197.39,168.82Z"/><path d="M179.34,198.56H126.57c-11.77,0-21.35-9.2-21.35-20.5V151.34a3.3,3.3,0,0,1,6.59,0v26.72c0,7.67,6.62,13.91,14.76,13.91h52.77c8.14,0,14.76-6.24,14.76-13.91a3.3,3.3,0,1,1,6.59,0C200.69,189.36,191.11,198.56,179.34,198.56Z"/><path d="M165.09,76.49h-23a12.08,12.08,0,0,1-12.07-12.07V60.74a3.29,3.29,0,0,1,3.29-3.3h40.52a3.29,3.29,0,0,1,3.29,3.3v3.68A12.08,12.08,0,0,1,165.09,76.49ZM136.65,64v.39a5.49,5.49,0,0,0,5.48,5.48h23a5.49,5.49,0,0,0,5.48-5.48V64Z"/><path d="M89.33,149.88h0a3.36,3.36,0,0,1-2.35-1l-26.5-27.19-.19-.21a22,22,0,0,1,17.07-36c4.81,0,8.81,3.12,12.08,5.86,3.28-2.77,7.28-5.86,12.1-5.86a22,22,0,0,1,16.94,36.12l-.18.2L91.68,148.89A3.31,3.31,0,0,1,89.33,149.88Zm-24-32.68,24,24.67,24.15-24.57a15.44,15.44,0,0,0-12-25.21c-2.81,0-6.06,2.78-8.67,5l-1.19,1-.07.06-.17.13a3.29,3.29,0,0,1-4.05-.05l-.18-.15c-.5-.41-.94-.78-1.38-1.16-2.56-2.15-5.75-4.84-8.47-4.84a15.44,15.44,0,0,0-12,25.11Zm50.64,2.31h0Z"/></svg>