<svg id="Layer_1" data-name="Layer 1" xmlns="http://www.w3.org/2000/svg" viewBox="0 0 256 256"><defs><style>.cls-1{fill:none;stroke:#000;stroke-linecap:round;stroke-linejoin:round;stroke-width:4px;}</style></defs><path d="M142.16,130.21a3.34,3.34,0,0,1-1.41-.32,3.29,3.29,0,0,1-1.57-4.39L167,66.77a3.3,3.3,0,1,1,6,2.82l-27.82,58.73A3.31,3.31,0,0,1,142.16,130.21Z"/><path d="M136.46,101.29a14,14,0,1,1,14-14A14,14,0,0,1,136.46,101.29Zm0-21.38a7.4,7.4,0,1,0,7.39,7.4A7.4,7.4,0,0,0,136.46,79.91Z"/><path d="M175.68,124.25a14,14,0,1,1,14-14A14,14,0,0,1,175.68,124.25Zm0-21.38a7.4,7.4,0,1,0,7.4,7.39A7.4,7.4,0,0,0,175.68,102.87Z"/><path class="cls-1" d="M120.17,128.63v25.65h-2.64V131h-6v-2.35Z"/><path d="M136,191.12H96.83a30.54,30.54,0,0,1-30.5-30.5V121.44a30.54,30.54,0,0,1,30.5-30.5h19.59a3.3,3.3,0,0,1,0,6.59H96.83a23.94,23.94,0,0,0-23.91,23.91v39.18a23.94,23.94,0,0,0,23.91,23.91H136a23.94,23.94,0,0,0,23.91-23.91V130.87a3.3,3.3,0,0,1,6.59,0v29.75A30.54,30.54,0,0,1,136,191.12Z"/></svg>