<svg id="Layer_1" data-name="Layer 1" xmlns="http://www.w3.org/2000/svg" viewBox="0 0 256 256"><path d="M106.51,127.13a3.29,3.29,0,0,1-2.46-5.48l30.07-33.87a11.59,11.59,0,0,1,17.34,15.39L140,116.09a3.3,3.3,0,1,1-4.93-4.38L146.53,98.8a5,5,0,1,0-7.48-6.65L109,126A3.29,3.29,0,0,1,106.51,127.13Z"/><path d="M115.82,171.52c-10,0-33.33-14.94-34.21-24-.67-6.92,1.93-22.25,11.74-33.92,10.19-12.12,23.47-8.16,25.66-6.88a3.3,3.3,0,1,1-3.33,5.69s-9.6-3.72-17.29,5.43c-8,9.48-10.81,22.94-10.22,29,.45,4.66,20.43,18.5,27.82,18,7.93-.52,20.56-8.08,28-19.86,1.67-2.67,2.37-5.29,1.82-6.84-.18-.51-.61-1.25-2.17-1.78l-4.08-1.37,2.39-3.58a3.93,3.93,0,0,0,0-4,3.68,3.68,0,0,0-2.29-2.11l-4.74-.12,1.77-4.4c.95-2.39-1.05-4.32-1.29-4.53a3.32,3.32,0,0,1-.25-4.64,3.28,3.28,0,0,1,4.61-.3,11.24,11.24,0,0,1,3.78,8.5,11.15,11.15,0,0,1,4.26,4.56,10.85,10.85,0,0,1,1.09,7.31A9,9,0,0,1,152,136c1.27,3.56.4,8-2.45,12.55-8.94,14.23-23.43,22.31-33.12,22.93A5.72,5.72,0,0,1,115.82,171.52Z"/><path d="M100.18,188a7,7,0,0,1-4.69-1.79l-24.77-22a7.06,7.06,0,0,1-.59-10l6-6.78a7.1,7.1,0,0,1,10-.6l24.77,22a7.09,7.09,0,0,1,.59,10l-6,6.78a7.1,7.1,0,0,1-4.88,2.37ZM81.44,151.62a.5.5,0,0,0-.37.16l-6,6.78a.48.48,0,0,0-.12.36.53.53,0,0,0,.16.34l24.78,22a.43.43,0,0,0,.35.13.5.5,0,0,0,.34-.17l6-6.78a.51.51,0,0,0,.13-.35.48.48,0,0,0-.17-.34l-24.77-22A.5.5,0,0,0,81.44,151.62Z"/><circle cx="174.57" cy="81.12" r="9.79"/><path d="M174.57,94.21a13.09,13.09,0,1,1,13.09-13.09A13.11,13.11,0,0,1,174.57,94.21Zm0-19.59a6.5,6.5,0,1,0,6.5,6.5A6.51,6.51,0,0,0,174.57,74.62Z"/><path d="M174.57,129.5a13.09,13.09,0,1,1,13.09-13.09A13.11,13.11,0,0,1,174.57,129.5Zm0-19.59a6.5,6.5,0,1,0,6.5,6.5A6.51,6.51,0,0,0,174.57,109.91Z"/><path d="M174.57,164.79a13.09,13.09,0,1,1,13.09-13.09A13.11,13.11,0,0,1,174.57,164.79Zm0-19.59a6.5,6.5,0,1,0,6.5,6.5A6.51,6.51,0,0,0,174.57,145.2Z"/></svg>