<svg id="Layer_1" data-name="Layer 1" xmlns="http://www.w3.org/2000/svg" viewBox="0 0 256 256"><defs><style>.cls-1{fill:#ffd85c;}</style></defs><circle class="cls-1" cx="144.25" cy="121.75" r="65.92"/><path d="M188.41,132.71H131.1a3.29,3.29,0,0,1-2.83-1.61l-9.45-15.78-10.35,15.89a3.29,3.29,0,0,1-2.76,1.5H49.12a3.3,3.3,0,0,1-3.23-4L55.32,83a3.31,3.31,0,0,1,3.23-2.63H179.34a3.3,3.3,0,0,1,0,6.59H61.24l-8.08,39.12h50.76l12.26-18.82a3.16,3.16,0,0,1,2.83-1.49,3.27,3.27,0,0,1,2.76,1.6L133,126.12h51.42l-5.34-26.95a3.29,3.29,0,1,1,6.46-1.28l6.13,30.88a3.31,3.31,0,0,1-3.23,3.94Z"/><path d="M179.7,182.76H57.83a3.29,3.29,0,0,1-3.3-3.29V129.41a3.3,3.3,0,0,1,6.59,0v46.76H176.41V129.41a3.3,3.3,0,0,1,6.59,0v50.06A3.29,3.29,0,0,1,179.7,182.76Z"/><path d="M186.59,200.18H50.93a3.29,3.29,0,0,1-3.29-3.3V179.47a3.29,3.29,0,0,1,3.29-3.3H186.59a3.3,3.3,0,0,1,3.3,3.3v17.41A3.3,3.3,0,0,1,186.59,200.18ZM54.23,193.59H183.3V182.76H54.23Z"/><path d="M105.34,182.76H70.52a3.29,3.29,0,0,1-3.29-3.29V159.16a20.71,20.71,0,1,1,41.41,0v20.31A3.29,3.29,0,0,1,105.34,182.76Zm-31.52-6.59h28.23v-17a14.12,14.12,0,1,0-28.23,0Z"/><path d="M165.56,170.43H124.2a3.29,3.29,0,0,1-3.29-3.29V141.75a3.3,3.3,0,0,1,3.29-3.3h41.36a3.29,3.29,0,0,1,3.29,3.3v25.39A3.29,3.29,0,0,1,165.56,170.43Zm-38.06-6.59h34.76V145H127.5Z"/><path d="M138,170.43a3.29,3.29,0,0,1-3.3-3.29V141.75a3.3,3.3,0,1,1,6.59,0v25.39A3.29,3.29,0,0,1,138,170.43Z"/></svg>