<svg id="Layer_1" data-name="Layer 1" xmlns="http://www.w3.org/2000/svg" viewBox="0 0 256 256"><defs><style>.cls-1{fill:#ffd85c;}</style></defs><circle class="cls-1" cx="135.67" cy="118.37" r="65.92"/><path d="M57.7,173.82a3.3,3.3,0,0,1-3.3-3.29V82.94c0-11.3,9.58-20.5,21.35-20.5h52.77c11.57,0,20.94,8.7,21.33,19.8,0,.3,0,15.11,0,15.26a3.3,3.3,0,1,1-6.59,0c0-.19,0-14.49,0-15.09C143,74.94,136.52,69,128.52,69H75.75C67.61,69,61,75.27,61,82.94v87.59A3.29,3.29,0,0,1,57.7,173.82Z"/><path d="M128.52,203.56H75.75c-11.77,0-21.35-9.2-21.35-20.51a3.3,3.3,0,0,1,6.59,0C61,190.73,67.61,197,75.75,197h52.77c8.13,0,14.76-6.24,14.76-13.92v-1.62a3.3,3.3,0,1,1,6.59,0v1.62C149.87,194.36,140.29,203.56,128.52,203.56Z"/><path d="M113,81.49H90A12.08,12.08,0,0,1,77.93,69.42V65.74a3.29,3.29,0,0,1,3.29-3.3h40.52a3.29,3.29,0,0,1,3.29,3.3v3.68A12.08,12.08,0,0,1,113,81.49ZM84.52,69v.39A5.49,5.49,0,0,0,90,74.9h23a5.49,5.49,0,0,0,5.48-5.48V69Z"/><path d="M134.48,153.94a3.33,3.33,0,0,1-2.19-.83L98.42,123a11.6,11.6,0,0,1,15.4-17.34l12.91,11.47a3.29,3.29,0,0,1-4.37,4.93l-12.92-11.47a5,5,0,0,0-6.64,7.48l33.87,30.08a3.3,3.3,0,0,1-2.19,5.76Z"/><path d="M155.93,175.64a52.93,52.93,0,0,1-31.68-11.84c-12.12-10.19-8.16-23.47-6.88-25.66a3.3,3.3,0,0,1,5.69,3.33s-3.72,9.6,5.43,17.29c9.48,8,22.94,10.81,29,10.22,4.67-.45,18.52-20.41,18-27.82-.51-7.93-8.08-20.55-19.86-27.95-2.67-1.68-5.28-2.38-6.83-1.83-.52.19-1.26.61-1.78,2.17l-1.38,4.08-3.58-2.39a4,4,0,0,0-4,0,3.69,3.69,0,0,0-2.1,2.29l-.12,4.74-4.4-1.76c-2.38-1-4.32,1-4.53,1.28a3.32,3.32,0,0,1-4.64.25,3.28,3.28,0,0,1-.31-4.61,11.28,11.28,0,0,1,8.51-3.78,11.19,11.19,0,0,1,4.55-4.26,10.86,10.86,0,0,1,7.31-1.08,8.86,8.86,0,0,1,4.23-3.16c3.56-1.28,8-.4,12.56,2.45,14.22,8.94,22.3,23.42,22.93,33.11s-14.75,33.91-24,34.8C157.5,175.6,156.75,175.64,155.93,175.64Z"/><path d="M169.53,188.81a7.05,7.05,0,0,1-4.7-1.79l-6.78-6a7.07,7.07,0,0,1-.59-10l22-24.78a7.1,7.1,0,0,1,10-.59l6.78,6a7.1,7.1,0,0,1,.6,10l-22,24.77A7,7,0,0,1,169.53,188.81Zm15.22-38.37a.5.5,0,0,0-.37.17l-22,24.77a.5.5,0,0,0,0,.7l6.79,6a.49.49,0,0,0,.69,0l22-24.77a.5.5,0,0,0,0-.7l-6.78-6A.53.53,0,0,0,184.75,150.44Zm9.61,9h0Z"/></svg>