<svg id="Layer_1" data-name="Layer 1" xmlns="http://www.w3.org/2000/svg" viewBox="0 0 256 256"><defs><style>.cls-1{fill:#ffd85c;}</style></defs><rect class="cls-1" x="73.92" y="47.15" width="132.16" height="132.16" rx="18.33"/><path d="M99.82,155.89H53.22a3.3,3.3,0,1,1,0-6.59h46.6a3.3,3.3,0,1,1,0,6.59Z"/><path d="M76.52,170.87a3.29,3.29,0,0,1-3.29-3.29v-15a3.3,3.3,0,1,1,6.59,0v15A3.29,3.29,0,0,1,76.52,170.87Z"/><path d="M76.52,208.85a3.29,3.29,0,0,1-3.29-3.29v-8.33a3.3,3.3,0,0,1,6.59,0v8.33A3.29,3.29,0,0,1,76.52,208.85Z"/><path d="M65.93,185.55a3.3,3.3,0,0,1-1.6-6.18L83.4,168.78a3.29,3.29,0,1,1,3.2,5.76L67.53,185.13A3.22,3.22,0,0,1,65.93,185.55Z"/><path d="M65.93,198.26a3.3,3.3,0,0,1-1.6-6.18L83.4,181.49a3.29,3.29,0,1,1,3.2,5.76l-19.07,10.6A3.31,3.31,0,0,1,65.93,198.26Z"/><path d="M112,184.49a55.46,55.46,0,0,1-16-2.34,3.29,3.29,0,0,1,1.89-6.31A48.88,48.88,0,1,0,63.12,129a49.48,49.48,0,0,0,1.06,10.18,3.29,3.29,0,0,1-6.44,1.36A55.46,55.46,0,1,1,112,184.49Z"/><path d="M112,93a3.29,3.29,0,0,1-3.29-3.3V76.87a3.3,3.3,0,1,1,6.59,0V89.72A3.3,3.3,0,0,1,112,93Z"/><path d="M112,184.09a3.29,3.29,0,0,1-3.29-3.29V167.94a3.3,3.3,0,0,1,6.59,0V180.8A3.3,3.3,0,0,1,112,184.09Z"/><path d="M163.67,132.33H150.81a3.3,3.3,0,0,1,0-6.59h12.86a3.3,3.3,0,0,1,0,6.59Z"/><path d="M72.68,132.33H59.83a3.3,3.3,0,1,1,0-6.59H72.68a3.3,3.3,0,1,1,0,6.59Z"/><path d="M137.22,142.31a3.26,3.26,0,0,1-1.21-.24l-25.23-10A3.3,3.3,0,0,1,108.7,129v-22.3a3.3,3.3,0,1,1,6.59,0v20.06L138.43,136a3.29,3.29,0,0,1-1.21,6.36Z"/></svg>