<svg id="Layer_1" data-name="Layer 1" xmlns="http://www.w3.org/2000/svg" viewBox="0 0 256 256"><defs><style>.cls-1{fill:#ffd85c;}</style></defs><circle class="cls-1" cx="160.48" cy="116.51" r="65.92"/><path d="M150.55,114.49H103.94a3.3,3.3,0,1,1,0-6.59h46.61a3.3,3.3,0,0,1,0,6.59Z"/><path d="M127.24,129.48a3.29,3.29,0,0,1-3.29-3.3v-15a3.3,3.3,0,1,1,6.59,0v15A3.3,3.3,0,0,1,127.24,129.48Z"/><path d="M127.24,167.46a3.29,3.29,0,0,1-3.29-3.3v-8.33a3.3,3.3,0,0,1,6.59,0v8.33A3.3,3.3,0,0,1,127.24,167.46Z"/><path d="M116.65,144.15a3.29,3.29,0,0,1-1.6-6.17l19.06-10.6a3.3,3.3,0,0,1,3.21,5.77l-19.07,10.59A3.31,3.31,0,0,1,116.65,144.15Z"/><path d="M116.65,156.86a3.29,3.29,0,0,1-1.6-6.17l19.06-10.59a3.3,3.3,0,1,1,3.21,5.76l-19.07,10.59A3.31,3.31,0,0,1,116.65,156.86Z"/><path d="M171.68,175.68a3.29,3.29,0,0,1-3.3-3.29V84.8c0-7.67-6.62-13.91-14.76-13.91H100.86c-8.14,0-14.76,6.24-14.76,13.91a3.3,3.3,0,1,1-6.59,0c0-11.3,9.58-20.5,21.35-20.5h52.76C165.4,64.3,175,73.5,175,84.8v87.59A3.29,3.29,0,0,1,171.68,175.68Z"/><path d="M153.62,205.42H100.86c-11.77,0-21.35-9.2-21.35-20.5V158.2a3.3,3.3,0,0,1,6.59,0v26.72c0,7.67,6.62,13.91,14.76,13.91h52.76c8.14,0,14.76-6.24,14.76-13.91a3.3,3.3,0,1,1,6.59,0C175,196.22,165.4,205.42,153.62,205.42Z"/><path d="M139.38,83.35h-23a12.09,12.09,0,0,1-12.08-12.07V67.6a3.3,3.3,0,0,1,3.3-3.3h40.51a3.3,3.3,0,0,1,3.3,3.3v3.68A12.09,12.09,0,0,1,139.38,83.35ZM110.93,70.89v.39a5.49,5.49,0,0,0,5.49,5.48h23a5.49,5.49,0,0,0,5.48-5.48v-.39Z"/><path d="M63.61,156.73h0a3.31,3.31,0,0,1-2.36-1L34.76,128.55l-.19-.21a22,22,0,0,1,17.06-36c4.82,0,8.82,3.12,12.08,5.86C67,95.45,71,92.36,75.82,92.36a22,22,0,0,1,16.94,36.12,1.8,1.8,0,0,1-.19.2L66,155.75A3.28,3.28,0,0,1,63.61,156.73Zm-24-32.67,24,24.67,24.16-24.57A15.44,15.44,0,0,0,75.82,99c-2.81,0-6.06,2.78-8.67,5L66,105l-.06.06-.17.13a3.3,3.3,0,0,1-4.06-.05l-.18-.15c-.5-.41-.93-.78-1.38-1.16C57.54,101.64,54.36,99,51.63,99a15.45,15.45,0,0,0-12.05,25.11Zm50.65,2.31h0Z"/></svg>