<svg id="Layer_1" data-name="Layer 1" xmlns="http://www.w3.org/2000/svg" viewBox="0 0 256 256"><defs><style>.cls-1{fill:#ffd85c;}.cls-2{fill:none;stroke:#000;stroke-linecap:round;stroke-linejoin:round;stroke-width:4px;}</style></defs><circle class="cls-1" cx="136.29" cy="122.95" r="65.92"/><path d="M129.61,138.07a3.4,3.4,0,0,1-1.41-.32,3.3,3.3,0,0,1-1.56-4.39l27.82-58.73a3.29,3.29,0,1,1,5.95,2.82l-27.82,58.73A3.3,3.3,0,0,1,129.61,138.07Z"/><path d="M123.92,109.15a14,14,0,1,1,14-14A14,14,0,0,1,123.92,109.15Zm0-21.38a7.4,7.4,0,1,0,7.39,7.4A7.41,7.41,0,0,0,123.92,87.77Z"/><path d="M163.14,132.11a14,14,0,1,1,14-14A14,14,0,0,1,163.14,132.11Zm0-21.38a7.4,7.4,0,1,0,7.39,7.39A7.4,7.4,0,0,0,163.14,110.73Z"/><path class="cls-2" d="M107.63,136.49v25.65H105v-23.3h-6v-2.35Z"/><path d="M123.46,199H84.29a30.54,30.54,0,0,1-30.5-30.5V129.3a30.54,30.54,0,0,1,30.5-30.5h19.58a3.3,3.3,0,1,1,0,6.59H84.29A23.94,23.94,0,0,0,60.38,129.3v39.18a23.94,23.94,0,0,0,23.91,23.91h39.17a23.94,23.94,0,0,0,23.91-23.91V138.73a3.3,3.3,0,0,1,6.59,0v29.75A30.54,30.54,0,0,1,123.46,199Z"/></svg>