<svg id="Layer_1" data-name="Layer 1" xmlns="http://www.w3.org/2000/svg" viewBox="0 0 256 256"><defs><style>.cls-1{fill:#ffd85c;}</style></defs><circle class="cls-1" cx="106.06" cy="125.2" r="65.92"/><path d="M177.91,185.91H87.23a23.14,23.14,0,0,1-23.12-23.12V111.72A23.15,23.15,0,0,1,87.23,88.59a3.3,3.3,0,1,1,0,6.59A16.56,16.56,0,0,0,70.7,111.72v51.07a16.55,16.55,0,0,0,16.53,16.53h90.68a16.55,16.55,0,0,0,16.53-16.53V111.72a16.55,16.55,0,0,0-16.53-16.54H101.8a3.3,3.3,0,1,1,0-6.59h76.11A23.15,23.15,0,0,1,201,111.72v51.07A23.14,23.14,0,0,1,177.91,185.91Z"/><path d="M192.74,196.72H102.07a23.12,23.12,0,0,1-10.68-2.61,3.29,3.29,0,1,1,3-5.84,16.36,16.36,0,0,0,7.63,1.86h90.67a16.56,16.56,0,0,0,16.54-16.53V122.53A16.51,16.51,0,0,0,203.51,110a3.29,3.29,0,1,1,4.3-5,23.1,23.1,0,0,1,8.06,17.54V173.6A23.15,23.15,0,0,1,192.74,196.72Z"/><path d="M98.71,133.66A10.64,10.64,0,1,1,109.35,123,10.65,10.65,0,0,1,98.71,133.66Zm0-14.69a4,4,0,1,0,4.05,4A4.06,4.06,0,0,0,98.71,119Z"/><path d="M98.71,173.23a18.12,18.12,0,1,1,7.85-34.46,3.3,3.3,0,1,1-2.86,5.94,11.53,11.53,0,1,0-5,21.93,11.59,11.59,0,0,0,11.5-10.57,3.29,3.29,0,1,1,6.56.54A18.2,18.2,0,0,1,98.71,173.23Z"/><path d="M134,133.66A10.64,10.64,0,1,1,144.64,123,10.65,10.65,0,0,1,134,133.66ZM134,119a4,4,0,1,0,4.05,4A4.06,4.06,0,0,0,134,119Z"/><path d="M169.29,133.66A10.64,10.64,0,1,1,179.93,123,10.66,10.66,0,0,1,169.29,133.66Zm0-14.69a4,4,0,1,0,4.05,4A4.06,4.06,0,0,0,169.29,119Z"/><path d="M134,164.4a10.64,10.64,0,1,1,10.64-10.64A10.65,10.65,0,0,1,134,164.4Zm0-14.69a4,4,0,1,0,4.05,4A4.06,4.06,0,0,0,134,149.71Z"/><path d="M169.29,164.4a10.64,10.64,0,1,1,10.64-10.64A10.66,10.66,0,0,1,169.29,164.4Zm0-14.69a4,4,0,1,0,4.05,4A4.06,4.06,0,0,0,169.29,149.71Z"/><path d="M101.8,102.92a3.3,3.3,0,0,1-3.3-3.3V80.76a3.3,3.3,0,0,1,6.59,0V99.62A3.29,3.29,0,0,1,101.8,102.92Z"/><path d="M161.94,102.92a3.3,3.3,0,0,1-3.3-3.3V80.76a3.3,3.3,0,0,1,6.59,0V99.62A3.29,3.29,0,0,1,161.94,102.92Z"/><path d="M99.35,164.26a3.25,3.25,0,0,1-2.22-.86l-7.89-7.21a3.29,3.29,0,0,1,4.44-4.86l5.42,4.95,10.57-11.91a3.29,3.29,0,1,1,4.93,4.37l-12.79,14.42a3.29,3.29,0,0,1-2.29,1.1Z"/></svg>