<svg id="Layer_1" data-name="Layer 1" xmlns="http://www.w3.org/2000/svg" viewBox="0 0 256 256"><defs><style>.cls-1{fill:#ffd85c;}</style></defs><circle class="cls-1" cx="116.65" cy="105.58" r="48.65"/><path d="M148.89,117.7H115.73a2.35,2.35,0,1,1,0-4.69h33.16a2.35,2.35,0,1,1,0,4.69Z"/><path d="M132.31,128.44A2.35,2.35,0,0,1,130,126.1V115.44a2.35,2.35,0,1,1,4.69,0V126.1A2.34,2.34,0,0,1,132.31,128.44Z"/><path d="M132.31,155.47a2.35,2.35,0,0,1-2.35-2.34V147.2a2.35,2.35,0,0,1,4.69,0v5.93A2.34,2.34,0,0,1,132.31,155.47Z"/><path d="M124.77,138.89a2.35,2.35,0,0,1-1.14-4.4L137.2,127a2.35,2.35,0,1,1,2.28,4.1l-13.57,7.53A2.34,2.34,0,0,1,124.77,138.89Z"/><path d="M124.77,147.93a2.34,2.34,0,0,1-1.14-4.39L137.2,136a2.35,2.35,0,0,1,2.28,4.1l-13.57,7.54A2.33,2.33,0,0,1,124.77,147.93Z"/><path d="M166.48,160a2.35,2.35,0,0,1-2.35-2.34V84.94A12,12,0,0,0,152.19,73H110.43a12,12,0,0,0-12,11.94,2.35,2.35,0,1,1-4.69,0,16.65,16.65,0,0,1,16.64-16.63h41.76a16.65,16.65,0,0,1,16.63,16.63v72.74A2.34,2.34,0,0,1,166.48,160Z"/><path d="M152.19,184.72H110.43a16.65,16.65,0,0,1-16.64-16.64V95.62a2.35,2.35,0,1,1,4.69,0v72.46a12,12,0,0,0,12,11.95h41.76a12,12,0,0,0,11.94-11.95,2.35,2.35,0,0,1,4.69,0A16.65,16.65,0,0,1,152.19,184.72Z"/><path d="M141.61,83.34H122a8.6,8.6,0,0,1-8.59-8.59v-4.1a2.34,2.34,0,0,1,2.34-2.34h32.07a2.34,2.34,0,0,1,2.34,2.34v4.1A8.6,8.6,0,0,1,141.61,83.34ZM118.14,73v1.75a3.91,3.91,0,0,0,3.9,3.9h19.57a3.91,3.91,0,0,0,3.9-3.9V73Z"/></svg>