<svg id="Layer_1" data-name="Layer 1" xmlns="http://www.w3.org/2000/svg" viewBox="0 0 256 256"><defs><style>.cls-1{fill:#ffd85c;}</style></defs><rect class="cls-1" x="60.97" y="74.67" width="106.65" height="106.65" rx="18.33"/><path d="M102,134.5H68.86a2.35,2.35,0,1,1,0-4.69H102a2.35,2.35,0,1,1,0,4.69Z"/><path d="M85.44,145.29a2.35,2.35,0,0,1-2.35-2.35V132.28a2.35,2.35,0,0,1,4.69,0v10.66A2.35,2.35,0,0,1,85.44,145.29Z"/><path d="M85.44,172.32A2.35,2.35,0,0,1,83.09,170V164a2.35,2.35,0,0,1,4.69,0V170A2.35,2.35,0,0,1,85.44,172.32Z"/><path d="M77.9,155.73a2.34,2.34,0,0,1-1.14-4.39l13.57-7.54a2.35,2.35,0,0,1,2.28,4.1L79,155.44A2.33,2.33,0,0,1,77.9,155.73Z"/><path d="M77.9,164.78a2.35,2.35,0,0,1-1.14-4.4l13.57-7.54a2.35,2.35,0,0,1,2.28,4.1L79,164.48A2.34,2.34,0,0,1,77.9,164.78Z"/><path d="M164.31,108.84a20.92,20.92,0,0,1-6.52-1L100.87,89.2a2.34,2.34,0,0,1,0-4.44l14.94-5.17A2.35,2.35,0,0,1,117.32,84L109,86.91l50.29,16.44a16.32,16.32,0,0,0,10.2,0l49.27-16.41-49-17.25a16.35,16.35,0,0,0-10.72,0l-29,10a2.35,2.35,0,0,1-1.53-4.44l29-10a21.09,21.09,0,0,1,13.81,0l55.46,19.53a2.34,2.34,0,0,1,0,4.44l-55.75,18.57A20.82,20.82,0,0,1,164.31,108.84Z"/><path d="M163.78,132.11c-20.71,0-36.93-9.37-36.93-21.33V96.94a2.35,2.35,0,0,1,4.69,0v13.84c0,9,14.76,16.64,32.24,16.64S196,119.8,196,110.78V103a2.35,2.35,0,0,1,4.69,0v7.83C200.71,122.74,184.49,132.11,163.78,132.11Z"/><path d="M163.78,164.23c-20.37,0-36.93-17.72-36.93-39.5V97.64a2.35,2.35,0,0,1,4.69,0v27.09c0,19.2,14.46,34.81,32.24,34.81S196,143.93,196,124.73V109.41a2.35,2.35,0,0,1,4.69,0v15.32C200.71,146.51,184.14,164.23,163.78,164.23Z"/><path d="M221.13,114.85a2.35,2.35,0,0,1-2.35-2.35V95.08a2.35,2.35,0,1,1,4.69,0V112.5A2.35,2.35,0,0,1,221.13,114.85Z"/><path d="M168.63,153h-9.7a2.35,2.35,0,1,1,0-4.69h9.7a2.35,2.35,0,0,1,0,4.69Z"/><path d="M96.06,192H58.63a2.34,2.34,0,0,1-2.34-2.34V138A2.34,2.34,0,1,1,61,138v49.3H96.06a2.35,2.35,0,0,1,0,4.69Z"/><path d="M104,184.84a2.33,2.33,0,0,1-1.72-.75,2.35,2.35,0,0,1,.12-3.32l5.51-5.11V123.85H61v2.69a2.34,2.34,0,1,1-4.68,0v-5a2.35,2.35,0,0,1,2.34-2.35h51.63a2.35,2.35,0,0,1,2.34,2.35v55.18a2.32,2.32,0,0,1-.75,1.71l-6.26,5.81A2.32,2.32,0,0,1,104,184.84Z"/></svg>