<svg id="Layer_1" data-name="Layer 1" xmlns="http://www.w3.org/2000/svg" viewBox="0 0 256 256"><defs><style>.cls-1{fill:#ffd85c;}</style></defs><circle class="cls-1" cx="160.83" cy="131.85" r="48.65"/><path d="M135.62,105.23H102.45a2.34,2.34,0,0,1,0-4.68h33.17a2.34,2.34,0,1,1,0,4.68Z"/><path d="M119,116a2.35,2.35,0,0,1-2.35-2.34V103a2.35,2.35,0,0,1,4.69,0v10.67A2.34,2.34,0,0,1,119,116Z"/><path d="M119,143.05a2.35,2.35,0,0,1-2.35-2.35v-5.92a2.35,2.35,0,1,1,4.69,0v5.92A2.35,2.35,0,0,1,119,143.05Z"/><path d="M111.5,126.47a2.35,2.35,0,0,1-1.14-4.4l13.57-7.54a2.35,2.35,0,0,1,2.28,4.1l-13.57,7.54A2.34,2.34,0,0,1,111.5,126.47Z"/><path d="M111.5,135.51a2.34,2.34,0,0,1-1.14-4.39l13.57-7.54a2.35,2.35,0,0,1,2.28,4.1l-13.57,7.54A2.33,2.33,0,0,1,111.5,135.51Z"/><path d="M60.59,134.78H44.18a2.35,2.35,0,1,1,0-4.69H60.59a2.35,2.35,0,0,1,0,4.69Z"/><path d="M37.14,134.78H36a2.35,2.35,0,1,1,0-4.69h1.17a2.35,2.35,0,1,1,0,4.69Z"/><path d="M62.93,123.06H45.35a2.35,2.35,0,1,1,0-4.69H62.93a2.35,2.35,0,1,1,0,4.69Z"/><path d="M39.49,123.06H37.14a2.35,2.35,0,0,1,0-4.69h2.35a2.35,2.35,0,0,1,0,4.69Z"/><path d="M58.24,111.33H44.18a2.35,2.35,0,1,1,0-4.69H58.24a2.35,2.35,0,1,1,0,4.69Z"/><path d="M37.14,111.33H36a2.35,2.35,0,1,1,0-4.69h1.17a2.35,2.35,0,1,1,0,4.69Z"/><path d="M179.39,190.47c-9.61,0-20.84-.61-27-3.1-9.7-3.88-16.83-9.46-18.16-14.23a5.14,5.14,0,0,1,.74-4.6c3.52-4.7,10-1.64,14.76.59a25.38,25.38,0,0,0,5.08,2,53.52,53.52,0,0,0,15.71.34c-.32-.27-.67-.54-1.05-.82-.86-.62-1.84-1.25-2.78-1.85-3.29-2.09-6.4-4.07-6.4-7.09a6.09,6.09,0,0,1,2.2-5c1.79-1.4,4.39-1.68,7.75-.84s13.4,6,21.12,10.13a12.87,12.87,0,0,0,6.07,1.53h10.93a2.34,2.34,0,0,1,2.34,2.34v15.43a2.34,2.34,0,0,1-1.92,2.31L197,189.84l-.25,0C196.12,189.92,188.47,190.47,179.39,190.47Zm-39.2-19.71a1.8,1.8,0,0,0-1.52.6c-.08.11,0,.4,0,.52.76,2.72,6.42,7.55,15.39,11.13,10.73,4.3,40.06,2.35,42.21,2.2l9.67-1.78V172.3h-8.58a17.53,17.53,0,0,1-8.28-2.08c-10.28-5.52-17.78-9.15-20-9.72-2.09-.52-3.29-.35-3.72,0a1.61,1.61,0,0,0-.4,1.17c.37.77,2.78,2.3,4.23,3.23,1,.64,2,1.3,3,2a31,31,0,0,1,2.44,2l.33.29a4.22,4.22,0,0,1,1.12,4.21,3.19,3.19,0,0,1-2.53,2.41,57.74,57.74,0,0,1-19.54,0,26.83,26.83,0,0,1-6.31-2.41C145.24,172.23,142.13,170.76,140.19,170.76Zm31.67,1.93h0Zm-7-11.09Z"/><path d="M220,193.4H208.31a2.35,2.35,0,0,1-2.35-2.35V162.92a2.35,2.35,0,0,1,2.35-2.35H220a2.35,2.35,0,0,1,2.35,2.35v28.13A2.35,2.35,0,0,1,220,193.4Zm-9.38-4.69h7V165.26h-7Z"/><path d="M160.76,176a2.33,2.33,0,0,1-1.94-1,46.61,46.61,0,0,1-4.1-8.32c-.19-.45-.34-.83-.47-1.13a2.45,2.45,0,0,0-1-1.31c-.09,0-.26.08-.31.11-.5.31-1.59,2.76.78,6.65a2.35,2.35,0,0,1-4,2.45c-3.87-6.34-1.88-11.48.77-13.1a5,5,0,0,1,4.17-.58,6.46,6.46,0,0,1,3.87,3.92l.5,1.23a43.31,43.31,0,0,0,3.64,7.45,2.33,2.33,0,0,1-.63,3.25A2.28,2.28,0,0,1,160.76,176Z"/><path d="M153.36,152.37h-66c-9.61,0-17.43-8.57-17.43-19.09V113.09a2.35,2.35,0,1,1,4.69,0v20.19c0,7.94,5.71,14.4,12.74,14.4h66c7,0,12.74-6.46,12.74-14.4V107c0-7.94-5.71-14.4-12.74-14.4h-66c-5.19,0-9.82,3.51-11.79,8.94a2.35,2.35,0,1,1-4.41-1.6c2.65-7.3,9-12,16.2-12h66c9.61,0,17.43,8.57,17.43,19.09v26.31C170.79,143.8,163,152.37,153.36,152.37Z"/><path d="M168.45,114.85H137.14a2.35,2.35,0,1,1,0-4.69h31.31a2.35,2.35,0,0,1,0,4.69Z"/><path d="M102.79,114.85H72.31a2.35,2.35,0,0,1,0-4.69h30.48a2.35,2.35,0,1,1,0,4.69Z"/></svg>