<svg id="Layer_1" data-name="Layer 1" xmlns="http://www.w3.org/2000/svg" viewBox="0 0 256 256"><defs><style>.cls-1{fill:#ffd85c;}</style></defs><rect class="cls-1" x="44" y="77.67" width="106.65" height="106.65" rx="18.33"/><path d="M140.13,162.49c-19.57,0-36.34-23.49-36.34-42.71a32.43,32.43,0,0,1,1.83-10.73,2.35,2.35,0,0,1,4.43,1.56,27.53,27.53,0,0,0-1.57,9.17c0,17.11,14.61,38,31.65,38s31.66-20.91,31.66-38a27.53,27.53,0,0,0-1.57-9.17,2.34,2.34,0,0,1,4.42-1.56,32.19,32.19,0,0,1,1.84,10.73C176.48,139,159.71,162.49,140.13,162.49Z"/><path d="M155.63,156.82l0-4.69c20.64-.12,32.59-3.24,32.59-18.85,0-23.52-10.12-63.31-48.07-63.31-16.23,0-28.71,7.62-37.08,22.64-6.14,11-9.81,26.24-9.81,40.67,0,15.59,11.52,18.72,31.42,18.85l0,4.69c-17.45-.12-36.08-2-36.08-23.54,0-15.2,3.89-31.25,10.41-42.95,9.12-16.39,23.36-25,41.17-25,41.65,0,52.76,42.74,52.76,68C192.89,154.8,173.66,156.71,155.63,156.82Z"/><path d="M124.89,112.17H107.31a2.35,2.35,0,1,1,0-4.69h15.57l2-13.25a2.35,2.35,0,0,1,4.64.71l-2.35,15.24Z"/><path d="M170.62,112.17H135.44a2.35,2.35,0,0,1,0-4.69h35.18a2.35,2.35,0,0,1,0,4.69Z"/><path d="M144.82,142.65h-9.38a2.34,2.34,0,0,1,0-4.68h9.38a2.34,2.34,0,1,1,0,4.68Z"/><path d="M140.13,190.72c-26.2,0-57.44-2.24-57.44-12.89,0-7.69,8.1-14.14,22.82-18.17l2.15.42c.86.66,1.54,1.18,3,12.9.66,5.1,1.28,11,1.29,11.87,7.35.72,16.62,1.18,28.13,1.18,10.4,0,19-.37,25.94-1,.71-4.49,3.83-22.93,6.47-24.94a2.49,2.49,0,0,1,2.21-.45c14.72,4,22.83,10.48,22.83,18.17C197.58,188.48,166.34,190.72,140.13,190.72Zm35.1-26.05c-1.36,4-3.7,15.57-4.41,19.91,16.17-1.83,22.07-4.94,22.07-6.75C192.89,172.86,186.33,168,175.23,164.67Zm-70.52.1c-10.9,3.32-17.33,8.14-17.33,13.06,0,1.72,5.37,4.64,19.9,6.49C107,181.28,105.67,169.33,104.71,164.77Z"/><path d="M153,174.31a2.35,2.35,0,0,1-2.34-2.35V156.72a2.35,2.35,0,0,1,4.69,0V172A2.35,2.35,0,0,1,153,174.31Z"/><path d="M127.24,174.31a2.35,2.35,0,0,1-2.35-2.35V156.72a2.35,2.35,0,0,1,4.69,0V172A2.35,2.35,0,0,1,127.24,174.31Z"/><path d="M74.2,131.32H41a2.35,2.35,0,1,1,0-4.69H74.2a2.35,2.35,0,1,1,0,4.69Z"/><path d="M57.62,142a2.35,2.35,0,0,1-2.34-2.35V129A2.34,2.34,0,1,1,60,129v10.66A2.35,2.35,0,0,1,57.62,142Z"/><path d="M57.62,169a2.34,2.34,0,0,1-2.34-2.34v-5.93a2.34,2.34,0,0,1,4.68,0v5.93A2.34,2.34,0,0,1,57.62,169Z"/><path d="M50.08,152.43a2.35,2.35,0,0,1-1.14-4.4l13.57-7.53a2.35,2.35,0,0,1,2.28,4.1l-13.57,7.53A2.34,2.34,0,0,1,50.08,152.43Z"/><path d="M50.08,161.48a2.35,2.35,0,0,1-1.14-4.4l13.57-7.54a2.35,2.35,0,0,1,2.28,4.1l-13.57,7.54A2.34,2.34,0,0,1,50.08,161.48Z"/></svg>